<svg xmlns="http://www.w3.org/2000/svg" viewBox="0 0 1024 1024">
  <defs>
    <linearGradient id="surface" x1="0" y1="0" x2="1" y2="1">
      <stop offset="0" stop-color="#17202b"/>
      <stop offset="1" stop-color="#080b11"/>
    </linearGradient>
    <linearGradient id="signal" x1="0" y1="0" x2="1" y2="1">
      <stop offset="0" stop-color="#55e6b5"/>
      <stop offset="0.52" stop-color="#78a9ff"/>
      <stop offset="1" stop-color="#ff9b73"/>
    </linearGradient>
    <filter id="glow" x="-30%" y="-30%" width="160%" height="160%">
      <feGaussianBlur stdDeviation="18" result="blur"/>
      <feMerge><feMergeNode in="blur"/><feMergeNode in="SourceGraphic"/></feMerge>
    </filter>
  </defs>
  <rect x="52" y="52" width="920" height="920" rx="220" fill="url(#surface)"/>
  <rect x="132" y="132" width="760" height="760" rx="170" fill="none" stroke="#ffffff" stroke-opacity=".08" stroke-width="8"/>
  <path d="M315 282h-50c-44 0-80 36-80 80v116M709 282h50c44 0 80 36 80 80v116M315 742h-50c-44 0-80-36-80-80V546M709 742h50c44 0 80-36 80-80V546" fill="none" stroke="url(#signal)" stroke-width="42" stroke-linecap="round"/>
  <g fill="none" stroke="url(#signal)" stroke-width="28" stroke-linecap="round" filter="url(#glow)">
    <path d="M390 391l244 242M634 391L390 633" opacity=".45"/>
    <path d="M390 391h244v242H390z" opacity=".2"/>
  </g>
  <circle cx="390" cy="391" r="76" fill="#55e6b5"/>
  <circle cx="634" cy="391" r="76" fill="#78a9ff"/>
  <circle cx="390" cy="633" r="76" fill="#78a9ff"/>
  <circle cx="634" cy="633" r="76" fill="#ff9b73"/>
  <circle cx="390" cy="391" r="28" fill="#ecfff8"/>
  <circle cx="634" cy="391" r="28" fill="#f1f6ff"/>
  <circle cx="390" cy="633" r="28" fill="#f1f6ff"/>
  <circle cx="634" cy="633" r="28" fill="#fff2ec"/>
</svg>
